<svg width="153" height="28" viewBox="0 0 153 28" fill="none" xmlns="http://www.w3.org/2000/svg">
<path d="M22.0352 28H18.3952L3.75516 5.8V28H0.115157V0.0799994H3.75516L18.3952 22.24V0.0799994H22.0352V28ZM96.1845 13.64C97.1979 13.8 98.1179 14.2133 98.9445 14.88C99.7979 15.5467 100.465 16.3733 100.945 17.36C101.451 18.3467 101.705 19.4 101.705 20.52C101.705 21.9333 101.345 23.2133 100.625 24.36C99.9045 25.48 98.8512 26.3733 97.4645 27.04C96.1045 27.68 94.4912 28 92.6245 28H82.2245V0.119999H92.2245C94.1179 0.119999 95.7312 0.439999 97.0645 1.08C98.3979 1.69333 99.3979 2.53333 100.065 3.6C100.731 4.66667 101.065 5.86666 101.065 7.2C101.065 8.85333 100.611 10.2267 99.7045 11.32C98.8245 12.3867 97.6512 13.16 96.1845 13.64ZM85.8645 12.16H91.9845C93.6912 12.16 95.0112 11.76 95.9445 10.96C96.8779 10.16 97.3445 9.05333 97.3445 7.64C97.3445 6.22667 96.8779 5.12 95.9445 4.32C95.0112 3.52 93.6645 3.12 91.9045 3.12H85.8645V12.16ZM92.3045 25C94.1179 25 95.5312 24.5733 96.5445 23.72C97.5579 22.8667 98.0645 21.68 98.0645 20.16C98.0645 18.6133 97.5312 17.4 96.4645 16.52C95.3979 15.6133 93.9712 15.16 92.1845 15.16H85.8645V25H92.3045Z" fill="#7F6EFC"/>
<path d="M44.7202 21.8H32.5602L30.3202 28H26.4802L36.5602 0.279999H40.7602L50.8002 28H46.9602L44.7202 21.8ZM43.6802 18.84L38.6402 4.76L33.6002 18.84H43.6802ZM78.2333 0.119999L67.7133 28H63.5133L52.9933 0.119999H56.8733L65.6333 24.16L74.3933 0.119999H78.2333ZM123.236 21.8H111.076L108.836 28H104.996L115.076 0.279999H119.276L129.316 28H125.476L123.236 21.8ZM122.196 18.84L117.156 4.76L112.116 18.84H122.196ZM148.389 28L141.749 16.6H137.349V28H133.709V0.119999H142.709C144.816 0.119999 146.589 0.479999 148.029 1.2C149.496 1.92 150.589 2.89333 151.309 4.12C152.029 5.34667 152.389 6.74667 152.389 8.32C152.389 10.24 151.829 11.9333 150.709 13.4C149.616 14.8667 147.962 15.84 145.749 16.32L152.749 28H148.389ZM137.349 13.68H142.709C144.682 13.68 146.162 13.2 147.149 12.24C148.136 11.2533 148.629 9.94667 148.629 8.32C148.629 6.66667 148.136 5.38667 147.149 4.48C146.189 3.57333 144.709 3.12 142.709 3.12H137.349V13.68Z" fill="black"/>
</svg>
